<svg width="64" height="64" viewBox="0 0 64 64" fill="none" xmlns="http://www.w3.org/2000/svg">
  <rect x="6" y="6" width="52" height="52" rx="16" fill="url(#logo-bg)" />
  <rect x="6.5" y="6.5" width="51" height="51" rx="15.5" stroke="rgba(255,255,255,0.16)" />
  <circle cx="32" cy="32" r="20" pathLength="100" stroke="#F8FBFF" stroke-opacity="0.72" stroke-width="3.4" stroke-linecap="round" stroke-dasharray="72 28" transform="rotate(-28 32 32)" />
  <circle cx="47" cy="19" r="3.5" fill="#FFD86A" />
  <path d="M32 17.5C25.65 17.5 20.5 22.65 20.5 29C20.5 37.84 29.47 44.68 31.53 46.15C31.81 46.35 32.19 46.35 32.47 46.15C34.53 44.68 43.5 37.84 43.5 29C43.5 22.65 38.35 17.5 32 17.5Z" stroke="#F8FBFF" stroke-width="3.4" stroke-linecap="round" stroke-linejoin="round" />
  <path d="M32 24.5L34.15 28.35L38 30.5L34.15 32.65L32 36.5L29.85 32.65L26 30.5L29.85 28.35L32 24.5Z" fill="#9BE7FF" />
  <defs>
    <linearGradient id="logo-bg" x1="14" y1="12" x2="52" y2="54" gradientUnits="userSpaceOnUse">
      <stop stop-color="#4F8CFF" />
      <stop offset="1" stop-color="#2B5DC6" />
    </linearGradient>
  </defs>
</svg>
